<svg width="23" height="23" viewBox="0 0 23 23" fill="none" xmlns="http://www.w3.org/2000/svg">
<g clip-path="url(#clip0)">
<path d="M21.2728 0.93811H0.939209V20.7687H21.2728V0.93811Z" fill="#001D26"/>
<path fill-rule="evenodd" clip-rule="evenodd" d="M0.0146484 0.0115356V21.6954H22.1967V0.0115356H0.0146484ZM0.938903 0.938197H21.2725V20.7687H0.938903V0.938197Z" fill="#00C8FF"/>
<path fill-rule="evenodd" clip-rule="evenodd" d="M5.37549 5.10833C5.37549 5.06199 5.51413 5.01566 5.56034 5.01566C6.1611 4.96933 7.03918 4.96933 7.9634 4.96933C10.5051 4.96933 11.5218 6.35932 11.5218 8.16633C11.5218 10.5293 9.81193 11.5486 7.73235 11.5486C7.36267 11.5486 7.27023 11.5486 6.99292 11.5486V15.1162C6.99292 15.2089 6.94674 15.2089 6.90051 15.2089H5.46792C5.37549 15.2089 5.37549 15.1626 5.37549 15.1162V5.10833ZM6.99292 10.0196C7.22398 10.0196 7.36267 10.0196 7.73235 10.0196C8.7952 10.0196 9.81193 9.64896 9.81193 8.16633C9.81193 7.00796 9.07251 6.40565 7.87097 6.40565C7.50129 6.40565 7.13154 6.40565 6.99292 6.45198V10.0196ZM14.9877 8.90761C14.2483 8.90761 14.0173 9.27832 14.0173 9.60265C14.0173 9.92699 14.2021 10.1586 15.1726 10.6683C16.6052 11.3633 17.0673 12.0583 17.0673 13.0313C17.0673 14.5139 15.9582 15.3016 14.4331 15.3016C13.6475 15.3016 12.9544 15.1162 12.5384 14.8846C12.4922 14.8383 12.446 14.7919 12.446 14.7456V13.4019C12.446 13.3093 12.4922 13.263 12.5384 13.3093C13.1392 13.6799 13.7862 13.8653 14.387 13.8653C15.1264 13.8653 15.4036 13.5409 15.4036 13.1239C15.4036 12.7996 15.1726 12.4753 14.2483 12.0119C12.9544 11.3633 12.3998 10.7609 12.3998 9.69533C12.3998 8.49066 13.324 7.51765 14.9415 7.51765C15.7271 7.51765 16.2817 7.65663 16.6052 7.79562C16.6976 7.84199 16.6976 7.93467 16.6976 7.98097V9.23194C16.6976 9.32462 16.6513 9.37099 16.559 9.32462C16.1892 9.04666 15.5885 8.90761 14.9877 8.90761Z" fill="#00C8FF"/>
</g>
<defs>
<clipPath id="clip0">
<rect width="22.7812" height="22.1484" fill="white"/>
</clipPath>
</defs>
</svg>
