<svg width="26" height="23" viewBox="0 0 26 23" fill="none" xmlns="http://www.w3.org/2000/svg">
<g clip-path="url(#clip0)">
<path d="M3.5542 10.8661C3.5542 16.7781 8.39929 21.5475 14.4052 21.5475C20.4111 21.5475 25.2057 16.7781 25.2057 10.8661H14.3547H3.5542Z" fill="#DC4C2C"/>
<path d="M14.3545 0.234192V10.8659H25.2055C25.2055 5.00357 20.3604 0.234192 14.3545 0.234192Z" fill="#F7A278"/>
<path d="M14.3547 0.234558C8.39931 0.234558 3.5542 5.00394 3.5542 10.8663H14.4052V0.234558H14.3547Z" fill="#C06346"/>
<path d="M12.1337 16.8279H2.14074C1.58557 16.8279 1.13135 16.3808 1.13135 15.8342V5.94773C1.13135 5.40124 1.58557 4.9541 2.14074 4.9541H12.1337C12.6889 4.9541 13.1431 5.40124 13.1431 5.94773V15.8342C13.1431 16.3808 12.6889 16.8279 12.1337 16.8279Z" fill="#9B341F"/>
<path d="M7.54113 7.935H4.71484V13.847H5.92612V11.7604H7.28879C8.39916 11.7604 9.35808 10.8661 9.35808 9.72348V9.67379C9.35808 8.72985 8.55054 7.935 7.54113 7.935ZM8.09632 9.9222C8.09632 10.419 7.69258 10.8661 7.13738 10.8661H5.97658V8.87894H7.18785C7.69258 8.87894 8.1468 9.27636 8.1468 9.82288V9.9222H8.09632Z" fill="white"/>
</g>
<defs>
<clipPath id="clip0">
<rect width="25.3125" height="22.1484" fill="white" transform="translate(0.460938)"/>
</clipPath>
</defs>
</svg>
