<svg width="25" height="22" viewBox="0 0 25 22" fill="none" xmlns="http://www.w3.org/2000/svg">
<g clip-path="url(#clip0)">
<path d="M15.374 0.868652H8.04452C7.53421 0.868652 7.07031 1.29067 7.07031 1.85336V5.88597H15.374V0.868652Z" fill="#169154"/>
<path d="M7.07031 15.9677V20.0003C7.07031 20.5161 7.48781 20.985 8.04452 20.985H15.374V15.9677H7.07031Z" fill="#18482A"/>
<path d="M15.374 5.88617H7.07031V10.9035H15.374V5.88617Z" fill="#0C8045"/>
<path d="M15.374 10.9033H7.07031V15.9675H15.374V10.9033Z" fill="#17472A"/>
<path d="M22.6571 0.868652H15.374V5.88597H23.6777V1.85336C23.6313 1.29067 23.2138 0.868652 22.6571 0.868652Z" fill="#29C27F"/>
<path d="M15.374 15.9672V20.9376H22.7035C23.2138 20.9376 23.6777 20.5156 23.6777 19.9529V15.9203L15.374 15.9672Z" fill="#27663F"/>
<path d="M23.6777 5.88617H15.374V10.9035H23.6777V5.88617Z" fill="#19AC65"/>
<path d="M23.6777 10.9033H15.374V15.9675H23.6777V10.9033Z" fill="#129652"/>
<path d="M11.6626 16.4833H2.47759C1.96731 16.4833 1.5498 16.0613 1.5498 15.5455V6.26109C1.5498 5.74529 1.96731 5.32327 2.47759 5.32327H11.6626C12.1729 5.32327 12.5905 5.74529 12.5905 6.26109V15.5455C12.5905 16.0613 12.1729 16.4833 11.6626 16.4833Z" fill="#0C7238"/>
<path d="M4.7505 8.08963H6.09579L7.16274 10.1997L8.27606 8.08963H9.52857L7.81218 10.9031L9.52857 13.7165H8.22971L7.06996 11.5127L5.91023 13.7165H4.61133L6.37412 10.9031L4.7505 8.08963Z" fill="white"/>
</g>
<defs>
<clipPath id="clip0">
<rect width="23.4141" height="20.8828" fill="white" transform="translate(0.921875 0.632812)"/>
</clipPath>
</defs>
</svg>
