<svg width="26" height="23" viewBox="0 0 26 23" fill="none" xmlns="http://www.w3.org/2000/svg">
<path d="M23.7477 0.234558H8.17209C7.58437 0.234558 7.14355 0.679613 7.14355 1.27302V5.57521H24.7762V1.27302C24.7762 0.679613 24.3354 0.234558 23.7477 0.234558Z" fill="#2D92D4"/>
<path d="M7.19263 16.2565V20.5092C7.19263 21.1026 7.63342 21.5477 8.22121 21.5477H23.7967C24.3845 21.5477 24.8253 21.1026 24.8253 20.5092V16.2565H7.19263Z" fill="#2150A9"/>
<path d="M24.7763 5.57495H7.19263V10.9156H24.7763V5.57495Z" fill="#2D83D4"/>
<path d="M24.7763 10.9157H7.19263V16.2564H24.7763V10.9157Z" fill="#2E70C9"/>
<path d="M12.0417 16.8005H2.29478C1.756 16.8005 1.31519 16.3554 1.31519 15.8115V5.97085C1.31519 5.4269 1.756 4.98184 2.29478 4.98184H12.0417C12.5805 4.98184 13.0213 5.4269 13.0213 5.97085V15.8115C13.0213 16.3554 12.5805 16.8005 12.0417 16.8005Z" fill="#00488D"/>
<path d="M9.73974 7.94879L8.85812 12.251L7.82953 7.94879H6.55608L5.52751 12.3499L4.59689 7.94879H3.42139L4.79282 13.8828H6.21322L7.19281 9.28393L8.22139 13.8828H9.54381L10.9152 7.94879H9.73974Z" fill="white"/>
</svg>
