<svg width="24" height="23" viewBox="0 0 24 23" fill="none" xmlns="http://www.w3.org/2000/svg">
<g clip-path="url(#clip0)">
<path d="M22.3846 0.93811H2.05103V20.7687H22.3846V0.93811Z" fill="#2A0034"/>
<path fill-rule="evenodd" clip-rule="evenodd" d="M1.12671 0.0115356V21.6954H23.3088V0.0115356H1.12671ZM2.05096 0.938197H22.3846V20.7687H2.05096V0.938197Z" fill="#EA77FF"/>
<path fill-rule="evenodd" clip-rule="evenodd" d="M6.94967 5.08972C6.94967 5.02485 6.96815 4.97852 7.0421 4.97852C7.63362 4.95072 8.50239 4.93219 9.41744 4.93219C11.9776 4.93219 13.096 6.34071 13.096 8.1384C13.096 10.4922 11.3953 11.5022 9.3065 11.5022C8.95532 11.5022 8.83513 11.4836 8.58557 11.4836V15.0421C8.58557 15.1162 8.55789 15.1532 8.47471 15.1532H7.05134C6.9774 15.1532 6.94043 15.1255 6.94043 15.0421V5.08972H6.94967ZM8.58557 10.0103C8.7982 10.0288 8.96457 10.0288 9.33425 10.0288C10.4156 10.0288 11.4323 9.64892 11.4323 8.1755C11.4323 6.99865 10.7114 6.40558 9.47287 6.40558C9.10319 6.40558 8.75195 6.42411 8.58557 6.43338V10.0103ZM14.5008 9.16705C14.5008 9.05583 14.5008 8.78707 14.4546 8.26817C14.4546 8.19405 14.4638 8.1755 14.5286 8.14767C15.0923 7.91601 16.414 7.50828 17.9113 7.50828C17.9853 7.50828 18.0222 7.52682 18.0222 7.60095V8.9446C18.0222 9.01873 17.9945 9.03728 17.9206 9.03728C17.3383 9.00952 16.4972 9.08365 16.1737 9.22263V15.0606C16.1737 15.1347 16.146 15.1718 16.0628 15.1718H14.6117C14.5378 15.1718 14.5008 15.1439 14.5008 15.0606V9.16705Z" fill="#EA77FF"/>
</g>
<defs>
<clipPath id="clip0">
<rect width="22.7812" height="22.1484" fill="white" transform="translate(0.929688)"/>
</clipPath>
</defs>
</svg>
